<mxfile host="app.diagrams.net" modified="2023-10-04T12:22:36.408Z" agent="Mozilla/5.0 (Windows NT 10.0; Win64; x64) AppleWebKit/537.36 (KHTML, like Gecko) Chrome/117.0.0.0 Safari/537.36" etag="uo0S73QV6-EMWdJtAwYP" version="22.0.0" type="device">
  <diagram name="Page-1" id="5f0bae14-7c28-e335-631c-24af17079c00">
    <mxGraphModel dx="1050" dy="542" grid="1" gridSize="10" guides="1" tooltips="1" connect="1" arrows="1" fold="1" page="1" pageScale="1" pageWidth="1100" pageHeight="850" background="none" math="0" shadow="0">
      <root>
        <mxCell id="0" />
        <mxCell id="1" parent="0" />
        <mxCell id="39150e848f15840c-1" value="" style="verticalAlign=top;align=left;spacingTop=8;spacingLeft=2;spacingRight=12;shape=cube;size=10;direction=south;fontStyle=4;html=1;rounded=0;shadow=0;comic=0;labelBackgroundColor=none;strokeWidth=1;fontFamily=Verdana;fontSize=12" parent="1" vertex="1">
          <mxGeometry x="120" y="70" width="210" height="220" as="geometry" />
        </mxCell>
        <mxCell id="MW-h_MzCLplX8FIxUJIi-4" value="&amp;lt;&amp;lt;Настільний комп&#39;ютер&amp;gt;&amp;gt;" style="text;html=1;strokeColor=none;fillColor=none;align=center;verticalAlign=middle;whiteSpace=wrap;rounded=0;" vertex="1" parent="1">
          <mxGeometry x="190" y="90" width="60" height="30" as="geometry" />
        </mxCell>
        <mxCell id="MW-h_MzCLplX8FIxUJIi-5" value="" style="verticalAlign=top;align=left;spacingTop=8;spacingLeft=2;spacingRight=12;shape=cube;size=10;direction=south;fontStyle=4;html=1;rounded=0;shadow=0;comic=0;labelBackgroundColor=none;strokeWidth=1;fontFamily=Verdana;fontSize=12" vertex="1" parent="1">
          <mxGeometry x="130" y="120" width="180" height="150" as="geometry" />
        </mxCell>
        <mxCell id="MW-h_MzCLplX8FIxUJIi-6" value="&amp;lt;&amp;lt;OS Windows, OS Linux, Mac OS&amp;gt;&amp;gt;" style="text;html=1;strokeColor=none;fillColor=none;align=center;verticalAlign=middle;whiteSpace=wrap;rounded=0;" vertex="1" parent="1">
          <mxGeometry x="160" y="135" width="120" height="30" as="geometry" />
        </mxCell>
        <mxCell id="MW-h_MzCLplX8FIxUJIi-7" value="" style="verticalAlign=top;align=left;spacingTop=8;spacingLeft=2;spacingRight=12;shape=cube;size=10;direction=south;fontStyle=4;html=1;rounded=0;shadow=0;comic=0;labelBackgroundColor=none;strokeWidth=1;fontFamily=Verdana;fontSize=12" vertex="1" parent="1">
          <mxGeometry x="140" y="170" width="150" height="90" as="geometry" />
        </mxCell>
        <mxCell id="MW-h_MzCLplX8FIxUJIi-8" value="&amp;lt;&amp;lt;Веб-навігатор&amp;gt;&amp;gt;" style="text;html=1;strokeColor=none;fillColor=none;align=center;verticalAlign=middle;whiteSpace=wrap;rounded=0;" vertex="1" parent="1">
          <mxGeometry x="155" y="180" width="120" height="30" as="geometry" />
        </mxCell>
        <mxCell id="MW-h_MzCLplX8FIxUJIi-3" value="*.js&lt;br&gt;(Angular)" style="shape=component;align=left;spacingLeft=36;rounded=0;shadow=0;comic=0;labelBackgroundColor=none;strokeWidth=1;fontFamily=Verdana;fontSize=12;html=1;" vertex="1" parent="1">
          <mxGeometry x="155" y="210" width="105" height="40" as="geometry" />
        </mxCell>
        <mxCell id="MW-h_MzCLplX8FIxUJIi-9" value="" style="group" vertex="1" connectable="0" parent="1">
          <mxGeometry x="160" y="290" width="20" height="43" as="geometry" />
        </mxCell>
        <mxCell id="MW-h_MzCLplX8FIxUJIi-1" value="" style="ellipse;whiteSpace=wrap;html=1;rounded=0;shadow=0;comic=0;labelBackgroundColor=none;strokeWidth=1;fontFamily=Verdana;fontSize=12;align=center;" vertex="1" parent="MW-h_MzCLplX8FIxUJIi-9">
          <mxGeometry y="23" width="20" height="20" as="geometry" />
        </mxCell>
        <mxCell id="MW-h_MzCLplX8FIxUJIi-2" style="edgeStyle=elbowEdgeStyle;rounded=0;html=1;labelBackgroundColor=none;startArrow=none;startFill=0;startSize=8;endArrow=none;endFill=0;endSize=16;fontFamily=Verdana;fontSize=12;" edge="1" parent="MW-h_MzCLplX8FIxUJIi-9" source="MW-h_MzCLplX8FIxUJIi-1">
          <mxGeometry relative="1" as="geometry">
            <mxPoint x="10" as="targetPoint" />
          </mxGeometry>
        </mxCell>
        <mxCell id="MW-h_MzCLplX8FIxUJIi-10" value="клавіатура" style="text;html=1;strokeColor=none;fillColor=none;align=center;verticalAlign=middle;whiteSpace=wrap;rounded=0;" vertex="1" parent="1">
          <mxGeometry x="140" y="333" width="60" height="30" as="geometry" />
        </mxCell>
        <mxCell id="MW-h_MzCLplX8FIxUJIi-11" value="" style="ellipse;whiteSpace=wrap;html=1;rounded=0;shadow=0;comic=0;labelBackgroundColor=none;strokeWidth=1;fontFamily=Verdana;fontSize=12;align=center;" vertex="1" parent="1">
          <mxGeometry x="260" y="313" width="20" height="20" as="geometry" />
        </mxCell>
        <mxCell id="MW-h_MzCLplX8FIxUJIi-12" style="edgeStyle=elbowEdgeStyle;rounded=0;html=1;labelBackgroundColor=none;startArrow=none;startFill=0;startSize=8;endArrow=none;endFill=0;endSize=16;fontFamily=Verdana;fontSize=12;" edge="1" parent="1" source="MW-h_MzCLplX8FIxUJIi-11">
          <mxGeometry relative="1" as="geometry">
            <mxPoint x="270" y="290" as="targetPoint" />
          </mxGeometry>
        </mxCell>
        <mxCell id="MW-h_MzCLplX8FIxUJIi-13" value="маніпулятор&lt;br&gt;&quot;миша&quot;" style="text;html=1;strokeColor=none;fillColor=none;align=center;verticalAlign=middle;whiteSpace=wrap;rounded=0;" vertex="1" parent="1">
          <mxGeometry x="240" y="340" width="60" height="30" as="geometry" />
        </mxCell>
        <mxCell id="MW-h_MzCLplX8FIxUJIi-14" value="" style="verticalAlign=top;align=left;spacingTop=8;spacingLeft=2;spacingRight=12;shape=cube;size=10;direction=south;fontStyle=4;html=1;rounded=0;shadow=0;comic=0;labelBackgroundColor=none;strokeWidth=1;fontFamily=Verdana;fontSize=12" vertex="1" parent="1">
          <mxGeometry x="390" y="70" width="210" height="220" as="geometry" />
        </mxCell>
        <mxCell id="MW-h_MzCLplX8FIxUJIi-15" value="&amp;lt;&amp;lt;сервер 1&amp;gt;&amp;gt;" style="text;html=1;strokeColor=none;fillColor=none;align=center;verticalAlign=middle;whiteSpace=wrap;rounded=0;" vertex="1" parent="1">
          <mxGeometry x="455" y="90" width="80" height="30" as="geometry" />
        </mxCell>
        <mxCell id="MW-h_MzCLplX8FIxUJIi-16" value="" style="verticalAlign=top;align=left;spacingTop=8;spacingLeft=2;spacingRight=12;shape=cube;size=10;direction=south;fontStyle=4;html=1;rounded=0;shadow=0;comic=0;labelBackgroundColor=none;strokeWidth=1;fontFamily=Verdana;fontSize=12" vertex="1" parent="1">
          <mxGeometry x="400" y="120" width="180" height="150" as="geometry" />
        </mxCell>
        <mxCell id="MW-h_MzCLplX8FIxUJIi-17" value="&amp;lt;&amp;lt;OS Linux&amp;gt;&amp;gt;" style="text;html=1;strokeColor=none;fillColor=none;align=center;verticalAlign=middle;whiteSpace=wrap;rounded=0;" vertex="1" parent="1">
          <mxGeometry x="430" y="135" width="120" height="30" as="geometry" />
        </mxCell>
        <mxCell id="MW-h_MzCLplX8FIxUJIi-18" value="" style="verticalAlign=top;align=left;spacingTop=8;spacingLeft=2;spacingRight=12;shape=cube;size=10;direction=south;fontStyle=4;html=1;rounded=0;shadow=0;comic=0;labelBackgroundColor=none;strokeWidth=1;fontFamily=Verdana;fontSize=12" vertex="1" parent="1">
          <mxGeometry x="410" y="170" width="150" height="90" as="geometry" />
        </mxCell>
        <mxCell id="MW-h_MzCLplX8FIxUJIi-19" value="&amp;lt;&amp;lt;Node.js&amp;gt;&amp;gt;" style="text;html=1;strokeColor=none;fillColor=none;align=center;verticalAlign=middle;whiteSpace=wrap;rounded=0;" vertex="1" parent="1">
          <mxGeometry x="425" y="180" width="120" height="30" as="geometry" />
        </mxCell>
        <mxCell id="MW-h_MzCLplX8FIxUJIi-20" value="*.js&lt;br&gt;" style="shape=component;align=left;spacingLeft=36;rounded=0;shadow=0;comic=0;labelBackgroundColor=none;strokeWidth=1;fontFamily=Verdana;fontSize=12;html=1;" vertex="1" parent="1">
          <mxGeometry x="425" y="210" width="105" height="40" as="geometry" />
        </mxCell>
        <mxCell id="MW-h_MzCLplX8FIxUJIi-29" value="" style="endArrow=none;html=1;rounded=0;exitX=0;exitY=0;exitDx=105;exitDy=0;exitPerimeter=0;entryX=0;entryY=0;entryDx=115;entryDy=210;entryPerimeter=0;" edge="1" parent="1" source="39150e848f15840c-1" target="MW-h_MzCLplX8FIxUJIi-14">
          <mxGeometry width="50" height="50" relative="1" as="geometry">
            <mxPoint x="510" y="340" as="sourcePoint" />
            <mxPoint x="560" y="290" as="targetPoint" />
          </mxGeometry>
        </mxCell>
        <mxCell id="MW-h_MzCLplX8FIxUJIi-30" value="" style="endArrow=none;dashed=1;html=1;rounded=0;" edge="1" parent="1">
          <mxGeometry width="50" height="50" relative="1" as="geometry">
            <mxPoint x="360" y="300" as="sourcePoint" />
            <mxPoint x="360" y="70" as="targetPoint" />
          </mxGeometry>
        </mxCell>
        <mxCell id="MW-h_MzCLplX8FIxUJIi-31" value="" style="verticalAlign=top;align=left;spacingTop=8;spacingLeft=2;spacingRight=12;shape=cube;size=10;direction=south;fontStyle=4;html=1;rounded=0;shadow=0;comic=0;labelBackgroundColor=none;strokeWidth=1;fontFamily=Verdana;fontSize=12" vertex="1" parent="1">
          <mxGeometry x="660" y="70" width="210" height="220" as="geometry" />
        </mxCell>
        <mxCell id="MW-h_MzCLplX8FIxUJIi-32" value="&amp;lt;&amp;lt;сервер 3&amp;gt;&amp;gt;" style="text;html=1;strokeColor=none;fillColor=none;align=center;verticalAlign=middle;whiteSpace=wrap;rounded=0;" vertex="1" parent="1">
          <mxGeometry x="725" y="90" width="80" height="30" as="geometry" />
        </mxCell>
        <mxCell id="MW-h_MzCLplX8FIxUJIi-33" value="" style="verticalAlign=top;align=left;spacingTop=8;spacingLeft=2;spacingRight=12;shape=cube;size=10;direction=south;fontStyle=4;html=1;rounded=0;shadow=0;comic=0;labelBackgroundColor=none;strokeWidth=1;fontFamily=Verdana;fontSize=12" vertex="1" parent="1">
          <mxGeometry x="670" y="120" width="180" height="150" as="geometry" />
        </mxCell>
        <mxCell id="MW-h_MzCLplX8FIxUJIi-34" value="&amp;lt;&amp;lt;OS Linux&amp;gt;&amp;gt;" style="text;html=1;strokeColor=none;fillColor=none;align=center;verticalAlign=middle;whiteSpace=wrap;rounded=0;" vertex="1" parent="1">
          <mxGeometry x="700" y="135" width="120" height="30" as="geometry" />
        </mxCell>
        <mxCell id="MW-h_MzCLplX8FIxUJIi-35" value="" style="verticalAlign=top;align=left;spacingTop=8;spacingLeft=2;spacingRight=12;shape=cube;size=10;direction=south;fontStyle=4;html=1;rounded=0;shadow=0;comic=0;labelBackgroundColor=none;strokeWidth=1;fontFamily=Verdana;fontSize=12" vertex="1" parent="1">
          <mxGeometry x="680" y="170" width="150" height="90" as="geometry" />
        </mxCell>
        <mxCell id="MW-h_MzCLplX8FIxUJIi-36" value="&amp;lt;&amp;lt;Database Server MongoDB&amp;gt;&amp;gt;" style="text;html=1;strokeColor=none;fillColor=none;align=center;verticalAlign=middle;whiteSpace=wrap;rounded=0;" vertex="1" parent="1">
          <mxGeometry x="695" y="180" width="120" height="30" as="geometry" />
        </mxCell>
        <mxCell id="MW-h_MzCLplX8FIxUJIi-38" value="JSON" style="shape=cylinder3;whiteSpace=wrap;html=1;boundedLbl=1;backgroundOutline=1;size=6.4000244140625;" vertex="1" parent="1">
          <mxGeometry x="700" y="210" width="100" height="40" as="geometry" />
        </mxCell>
        <mxCell id="MW-h_MzCLplX8FIxUJIi-39" value="" style="endArrow=none;html=1;rounded=0;exitX=0;exitY=0;exitDx=105;exitDy=0;exitPerimeter=0;entryX=0;entryY=0;entryDx=115;entryDy=210;entryPerimeter=0;" edge="1" parent="1" source="MW-h_MzCLplX8FIxUJIi-14" target="MW-h_MzCLplX8FIxUJIi-31">
          <mxGeometry width="50" height="50" relative="1" as="geometry">
            <mxPoint x="340" y="185" as="sourcePoint" />
            <mxPoint x="400" y="195" as="targetPoint" />
          </mxGeometry>
        </mxCell>
        <mxCell id="MW-h_MzCLplX8FIxUJIi-40" value="" style="endArrow=none;dashed=1;html=1;rounded=0;" edge="1" parent="1">
          <mxGeometry width="50" height="50" relative="1" as="geometry">
            <mxPoint x="630" y="300" as="sourcePoint" />
            <mxPoint x="630" y="70" as="targetPoint" />
          </mxGeometry>
        </mxCell>
      </root>
    </mxGraphModel>
  </diagram>
</mxfile>
